<?xml version="1.0" encoding="UTF-8" standalone="no"?>
<!DOCTYPE svg PUBLIC "-//W3C//DTD SVG 1.1//EN" "http://www.w3.org/Graphics/SVG/1.1/DTD/svg11.dtd">
<svg width="100%" height="100%" viewBox="0 0 780 84" version="1.1" xmlns="http://www.w3.org/2000/svg" xmlns:xlink="http://www.w3.org/1999/xlink" xml:space="preserve" xmlns:serif="http://www.serif.com/" style="fill-rule:evenodd;clip-rule:evenodd;stroke-linejoin:round;stroke-miterlimit:2;">
    <g transform="matrix(1,0,0,1,-12.8916,-362.842)">
        <g transform="matrix(4.16667,0,0,4.16667,0,0)">
            <g>
                <path d="M96.205,104.559L94.616,97.892L90.828,104.559L86.302,104.559L82.469,97.892L80.87,104.559L76.116,104.559L79.238,94.218L84.5,94.218L88.568,101.299L92.637,94.218L97.849,94.218L100.983,104.559L96.205,104.559Z" style="fill:rgb(0,115,151);"/>
                <path d="M60.579,94.218L53.562,104.559L58.3,104.559L59.364,102.776L66.709,102.776L67.772,104.559L72.999,104.559L65.974,94.218L60.579,94.218ZM60.562,100.767L63.034,96.618L65.509,100.767L60.562,100.767Z" style="fill:rgb(0,115,151);"/>
                <path d="M152.118,94.218L145.096,104.559L149.836,104.559L150.899,102.776L158.245,102.776L159.307,104.559L164.536,104.559L157.513,94.218L152.118,94.218ZM152.1,100.767L154.572,96.618L157.048,100.767L152.1,100.767Z" style="fill:rgb(0,115,151);"/>
                <path d="M179.061,104.559L173.404,99.672L173.404,104.559L168.56,104.559L168.56,94.218L173.404,94.218L173.404,98.753L179.057,94.218L184.933,94.218L178.409,99.166L185.373,104.559L179.061,104.559Z" style="fill:rgb(0,115,151);"/>
                <path d="M136.321,104.559L141.793,104.559L138.17,100.606C140.172,100.107 141.012,98.918 141.012,97.566C141.012,95.98 139.894,95.121 138.292,94.688C136.632,94.239 134.425,94.218 132.337,94.218L124.93,94.218L124.93,104.559L129.715,104.559L129.715,101.453L133.862,101.453L136.321,104.559ZM129.715,96.269L132.747,96.269C135.214,96.269 136.221,96.745 136.221,97.793C136.221,98.636 135.551,99.148 134.72,99.338C134.102,99.48 133.542,99.507 132.571,99.507L129.715,99.507L129.715,96.269Z" style="fill:rgb(0,115,151);"/>
                <path d="M114.288,96.589L114.288,104.559L109.423,104.559L109.423,96.589L103.172,96.589L103.705,94.218L120.629,94.218L120.101,96.589L114.288,96.589Z" style="fill:rgb(0,115,151);"/>
                <path d="M27.332,103.148C31.035,104.679 34.866,106.088 38.13,107.029C42.062,99.212 49.171,93.017 62.273,87.338L62.273,87.082C45.444,91.683 34.913,94.98 27.332,103.148Z" style="fill:rgb(0,115,151);"/>
                <path d="M43.545,89.503C35.89,90.268 22.339,92.487 14.618,97.294C17.425,98.707 20.361,100.105 23.294,101.412C31.423,94.481 42.177,91.408 53.135,89.254L53.135,89C50.35,89.327 46.144,89.527 43.545,89.503Z" style="fill:rgb(0,115,151);"/>
                <path d="M186.583,95.993C186.583,95.057 187.287,94.353 188.19,94.353C189.08,94.353 189.784,95.057 189.784,95.993C189.784,96.937 189.08,97.638 188.19,97.638C187.287,97.638 186.583,96.937 186.583,95.993ZM188.19,97.965C189.263,97.965 190.181,97.133 190.181,95.993C190.181,94.858 189.263,94.025 188.19,94.025C187.104,94.025 186.188,94.858 186.188,95.993C186.188,97.133 187.104,97.965 188.19,97.965ZM187.773,96.147L188.172,96.147L188.769,97.133L189.152,97.133L188.508,96.133C188.841,96.088 189.095,95.914 189.095,95.507C189.095,95.057 188.829,94.858 188.294,94.858L187.43,94.858L187.43,97.133L187.773,97.133L187.773,95.151L188.244,95.151C188.482,95.151 188.736,95.202 188.736,95.486C188.736,95.837 188.479,95.855 188.186,95.855L187.773,95.855L187.773,96.147Z" style="fill:rgb(0,115,151);"/>
            </g>
            <path d="M34.827,87.936C31.114,87.761 11.722,87.268 3.094,91.006C5.428,92.384 7.93,93.814 10.869,95.364C19.42,91.364 30.513,89.917 40.715,89.36L40.715,89.101C38.731,88.859 36.541,88.435 34.827,87.936Z" style="fill:rgb(0,115,151);"/>
        </g>
    </g>
</svg>
