<?xml version="1.0" encoding="UTF-8" standalone="no"?>
<!DOCTYPE svg PUBLIC "-//W3C//DTD SVG 1.1//EN" "http://www.w3.org/Graphics/SVG/1.1/DTD/svg11.dtd">
<svg width="100%" height="100%" viewBox="0 0 2594 1912" version="1.1" xmlns="http://www.w3.org/2000/svg" xmlns:xlink="http://www.w3.org/1999/xlink" xml:space="preserve" xmlns:serif="http://www.serif.com/" style="fill-rule:evenodd;clip-rule:evenodd;stroke-linejoin:round;stroke-miterlimit:2;">
    <g transform="matrix(1,0,0,1,-1770.83,-1516.09)">
        <g transform="matrix(4.16667,0,0,4.16667,0,0)">
            <g transform="matrix(0.474609,0,0,0.474609,373.156,293.168)">
                <path d="M564.56,530.505C562.952,530.505 560.036,530.505 558.143,530.652L558.143,550.067C560.33,550.355 563.242,550.503 566.168,550.503C575.36,550.503 579.59,546.272 579.59,540.001C579.59,533.28 574.05,530.505 564.56,530.505ZM566.021,500.438C563.683,500.438 560.623,500.586 558.143,500.586L558.143,518.685C560.33,518.828 562.516,518.828 563.541,518.828C572.448,518.828 578.418,515.611 578.418,509.052C578.418,503.94 575.503,500.438 566.021,500.438ZM566.604,563.936C561.062,563.936 551.138,563.64 539.455,563.64L539.455,487.742C547.182,487.742 559.593,487.301 569.665,487.301C590.098,487.301 598.421,494.306 598.421,506.282C598.421,513.572 594.333,519.995 586.739,522.921L586.739,523.063C595.21,525.398 599.44,531.82 599.44,540.001C599.44,551.379 591.563,563.936 566.604,563.936Z" style="fill:rgb(154,0,48);fill-rule:nonzero;"/>
            </g>
            <g transform="matrix(0.474609,0,0,0.474609,373.156,293.168)">
                <path d="M674.153,502.921C663.941,502.921 654.889,510.657 654.889,525.398C654.889,538.677 660.875,548.316 673.714,548.316C684.375,548.316 693.57,541.305 693.57,525.833C693.57,510.802 685.692,502.921 674.153,502.921ZM672.695,564.955C647.881,564.955 634.746,549.631 634.746,526.57C634.746,501.753 654.012,486.429 675.471,486.429C697.071,486.429 713.715,498.69 713.715,524.814C713.715,549.774 694.742,564.955 672.695,564.955Z" style="fill:rgb(154,0,48);fill-rule:nonzero;"/>
            </g>
            <g transform="matrix(0.474609,0,0,0.474609,373.156,293.168)">
                <path d="M764.345,565.249C759.52,565.249 753.69,564.517 749.457,563.492L750.188,546.853C754.567,548.604 760.257,549.634 766.25,549.634C772.52,549.634 777.77,546.703 777.77,541.014C777.77,529.48 747.262,535.907 747.262,511.096C747.262,496.208 758.493,486.284 779.373,486.284C783.46,486.284 789.011,486.862 793.239,487.451L792.657,503.208C788.57,502.046 783.031,501.315 778.641,501.315C770.617,501.315 767.265,504.376 767.265,509.052C767.265,519.847 798.36,515.326 798.36,538.672C798.36,554.59 785.515,565.249 764.345,565.249Z" style="fill:rgb(154,0,48);fill-rule:nonzero;"/>
            </g>
            <g transform="matrix(0.474609,0,0,0.474609,373.156,293.168)">
                <path d="M865.152,503.797L865.152,563.637L846.327,563.637L846.327,503.797L826.468,503.797L826.468,487.742L885.009,487.742L885.009,503.797L865.152,503.797Z" style="fill:rgb(154,0,48);fill-rule:nonzero;"/>
            </g>
            <g transform="matrix(0.474609,0,0,0.474609,373.156,293.168)">
                <path d="M951.829,502.921C941.615,502.921 932.551,510.657 932.551,525.398C932.551,538.677 938.538,548.316 951.381,548.316C962.042,548.316 971.246,541.305 971.246,525.833C971.246,510.802 963.355,502.921 951.829,502.921ZM950.371,564.955C925.554,564.955 912.419,549.631 912.419,526.57C912.419,501.753 931.685,486.429 953.135,486.429C974.736,486.429 991.377,498.69 991.377,524.814C991.377,549.774 972.402,564.955 950.371,564.955Z" style="fill:rgb(154,0,48);fill-rule:nonzero;"/>
            </g>
            <g transform="matrix(0.474609,0,0,0.474609,373.156,293.168)">
                <path d="M1077.48,563.64L1054.7,526.568C1052.09,522.337 1049.45,516.929 1047.55,512.699L1047.41,512.699C1047.7,516.356 1047.84,520.145 1047.84,526.121L1047.84,563.64L1029.75,563.64L1029.75,487.739L1055,487.739L1077.04,523.935C1079.96,528.464 1082.58,533.277 1084.92,538.387L1085.06,538.387C1084.77,533.866 1084.62,527.587 1084.62,519.704L1084.48,487.739L1102.73,487.739L1102.73,563.64L1077.48,563.64Z" style="fill:rgb(154,0,48);fill-rule:nonzero;"/>
            </g>
            <g transform="matrix(0.474609,0,0,0.474609,373.156,293.168)">
                <path d="M126.315,711.173C121.501,711.173 115.657,710.459 111.422,709.431L112.159,692.795C116.531,694.532 122.232,695.559 128.207,695.559C134.482,695.559 139.743,692.639 139.743,686.949C139.743,675.417 109.235,681.843 109.235,657.032C109.235,642.138 120.477,632.22 141.346,632.22C145.436,632.22 150.984,632.796 155.226,633.382L154.634,649.147C150.544,647.98 145,647.249 140.617,647.249C132.592,647.249 129.233,650.32 129.233,654.983C129.233,665.784 160.319,661.255 160.319,684.625C160.319,700.518 147.475,711.173 126.315,711.173Z" style="fill:rgb(154,0,48);fill-rule:nonzero;"/>
            </g>
            <g transform="matrix(0.474609,0,0,0.474609,373.156,293.168)">
                <path d="M238.662,684.91L238.662,709.571L219.836,709.571L219.836,685.195L193.118,633.678L213.998,633.678L223.631,653.095C225.67,657.323 227.867,661.986 229.75,667.101L229.906,667.101C231.799,661.846 234.284,656.887 236.475,652.358L246.251,633.678L265.66,633.678L238.662,684.91Z" style="fill:rgb(154,0,48);fill-rule:nonzero;"/>
            </g>
            <g transform="matrix(0.474609,0,0,0.474609,373.156,293.168)">
                <path d="M381.372,709.571L376.261,673.083C375.39,666.666 374.653,660.83 374.217,656.452L374.075,656.452C373.05,661.259 371.733,666.509 370.275,671.485L358.014,709.571L338.46,709.571L327.512,674.405C325.761,669.006 324.01,662.287 322.846,656.731L322.698,656.731C322.413,662.431 321.811,667.983 320.942,674.114L316.418,709.571L297.588,709.571L309.413,633.678L333.057,633.678L345.469,672.205C346.773,676.449 348.088,681.397 349.113,686.512L349.258,686.512C350.28,681.112 351.444,677.019 352.907,672.502L365.757,633.678L389.837,633.678L401.366,709.571L381.372,709.571Z" style="fill:rgb(154,0,48);fill-rule:nonzero;"/>
            </g>
            <g transform="matrix(0.474609,0,0,0.474609,373.156,293.168)">
                <path d="M475.199,648.27C473.013,648.27 470.237,648.27 468.486,648.422L468.486,671.044C469.938,671.329 472.571,671.485 474.317,671.485C482.498,671.485 487.896,667.246 487.896,659.646C487.896,653.375 483.66,648.27 475.199,648.27ZM474.758,686.367C473.155,686.367 470.095,686.227 468.486,686.077L468.486,709.571L449.661,709.571L449.661,633.678C456.374,633.382 467.169,633.231 476.505,633.231C496.509,633.231 507.893,642.434 507.893,658.635C507.893,675.713 494.024,686.367 474.758,686.367Z" style="fill:rgb(154,0,48);fill-rule:nonzero;"/>
            </g>
            <g transform="matrix(0.474609,0,0,0.474609,373.156,293.168)">
                <path d="M603.916,709.571L603.916,678.928L571.657,678.928L571.657,709.571L552.832,709.571L552.832,633.678L571.657,633.678L571.657,662.722L603.916,662.722L603.916,633.678L622.747,633.678L622.747,709.571L603.916,709.571Z" style="fill:rgb(154,0,48);fill-rule:nonzero;"/>
            </g>
            <g transform="matrix(0.474609,0,0,0.474609,373.156,293.168)">
                <path d="M707.815,648.857C697.604,648.857 688.557,656.596 688.557,671.334C688.557,684.63 694.532,694.253 707.382,694.253C718.035,694.253 727.238,687.245 727.238,671.769C727.238,656.731 719.347,648.857 707.815,648.857ZM706.357,710.889C681.549,710.889 668.409,695.559 668.409,672.502C668.409,647.694 687.675,632.36 709.132,632.36C730.733,632.36 747.37,644.613 747.37,670.748C747.37,695.71 728.4,710.889 706.357,710.889Z" style="fill:rgb(154,0,48);fill-rule:nonzero;"/>
            </g>
            <g transform="matrix(0.474609,0,0,0.474609,373.156,293.168)">
                <path d="M840.765,709.571L818.002,672.502C815.367,668.274 812.742,662.874 810.837,658.635L810.698,658.635C810.988,662.287 811.139,666.09 811.139,672.071L811.139,709.571L793.04,709.571L793.04,633.678L818.288,633.678L840.329,669.877C843.24,674.405 845.875,679.214 848.208,684.323L848.354,684.323C848.069,679.8 847.923,673.523 847.923,665.643L847.767,633.678L866.023,633.678L866.023,709.571L840.765,709.571Z" style="fill:rgb(154,0,48);fill-rule:nonzero;"/>
            </g>
            <g transform="matrix(0.474609,0,0,0.474609,373.156,293.168)">
                <path d="M951.51,684.91L951.51,709.571L932.685,709.571L932.685,685.195L905.975,633.678L926.85,633.678L936.484,653.095C938.522,657.323 940.711,661.986 942.603,667.101L942.755,667.101C944.647,661.846 947.133,656.887 949.322,652.358L959.105,633.678L978.517,633.678L951.51,684.91Z" style="fill:rgb(154,0,48);fill-rule:nonzero;"/>
            </g>
            <g transform="matrix(0.474609,0,0,0.474609,373.156,293.168)">
                <path d="M415.695,794.796C405.478,794.796 396.434,802.536 396.434,817.267C396.434,830.553 402.415,840.192 415.265,840.192C425.912,840.192 435.109,833.188 435.109,817.709C435.109,802.67 427.229,794.796 415.695,794.796ZM414.24,856.828C389.428,856.828 376.289,841.493 376.289,818.43C376.289,793.634 395.56,778.304 417.013,778.304C438.613,778.304 455.252,790.557 455.252,816.682C455.252,841.643 436.279,856.828 414.24,856.828Z" style="fill:rgb(154,0,48);fill-rule:nonzero;"/>
            </g>
            <g transform="matrix(0.474609,0,0,0.474609,373.156,293.168)">
                <path d="M518.14,793.477C516.096,793.477 514.203,793.634 512.448,793.768L512.448,813.18C514.349,813.471 516.679,813.471 518.729,813.471C526.033,813.471 530.69,809.243 530.69,802.961C530.69,796.979 525.877,793.477 518.14,793.477ZM531.866,855.52L513.177,825.884L512.448,825.884L512.448,855.52L493.618,855.52L493.618,779.606C499.75,779.315 511.281,779.175 520.919,779.175C539.598,779.175 550.697,786.33 550.697,801.073C550.697,812.744 543.25,820.048 532.31,822.673C533.754,824.712 535.803,827.778 537.995,830.989L554.782,855.52L531.866,855.52Z" style="fill:rgb(154,0,48);fill-rule:nonzero;"/>
            </g>
            <g transform="matrix(0.474609,0,0,0.474609,373.156,293.168)">
                <path d="M623.628,856.682C598.375,856.682 585.674,842.08 585.674,819.311C585.674,797.861 598.519,778.444 627.428,778.444C631.943,778.444 638.076,779.02 642.889,780.333L641.286,796.835C636.478,795.231 631.366,794.355 626.404,794.355C613.412,794.355 605.965,803.692 605.965,817.547C605.965,832.306 614.138,839.891 627.275,839.891C632.522,839.891 637.782,838.868 641.87,836.824L643.484,853.471C637.205,855.515 630.634,856.682 623.628,856.682Z" style="fill:rgb(154,0,48);fill-rule:nonzero;"/>
            </g>
            <g transform="matrix(0.474609,0,0,0.474609,373.156,293.168)">
                <path d="M733.666,855.515L733.666,824.862L701.409,824.862L701.409,855.515L682.579,855.515L682.579,779.601L701.409,779.601L701.409,808.662L733.666,808.662L733.666,779.601L752.49,779.601L752.49,855.515L733.666,855.515Z" style="fill:rgb(154,0,48);fill-rule:nonzero;"/>
            </g>
            <g transform="matrix(0.474609,0,0,0.474609,373.156,293.168)">
                <path d="M797.999,855.515L797.999,779.601L844.702,779.601L844.702,794.355L816.825,794.355L816.825,809.544L843.389,809.544L843.389,823.835L816.825,823.835L816.825,840.482L844.702,840.482L844.702,855.515L797.999,855.515Z" style="fill:rgb(154,0,48);fill-rule:nonzero;"/>
            </g>
            <g transform="matrix(0.474609,0,0,0.474609,373.156,293.168)">
                <path d="M899.134,857.118C894.315,857.118 888.467,856.381 884.245,855.354L884.977,838.728C889.356,840.482 895.036,841.499 901.027,841.499C907.304,841.499 912.564,838.583 912.564,832.887C912.564,821.355 882.057,827.778 882.057,802.956C882.057,788.078 893.298,778.154 914.162,778.154C918.25,778.154 923.795,778.745 928.039,779.322L927.453,795.081C923.36,793.92 917.814,793.176 913.43,793.176C905.405,793.176 902.043,796.248 902.043,800.923C902.043,811.712 933.138,807.193 933.138,830.548C933.138,846.463 920.293,857.118 899.134,857.118Z" style="fill:rgb(154,0,48);fill-rule:nonzero;"/>
            </g>
            <g transform="matrix(0.474609,0,0,0.474609,373.156,293.168)">
                <path d="M999.941,795.667L999.941,855.515L981.11,855.515L981.11,795.667L961.257,795.667L961.257,779.606L1019.79,779.606L1019.79,795.667L999.941,795.667Z" style="fill:rgb(154,0,48);fill-rule:nonzero;"/>
            </g>
            <g transform="matrix(0.474609,0,0,0.474609,373.156,293.168)">
                <path d="M1080.35,793.477C1078.31,793.477 1076.41,793.634 1074.66,793.768L1074.66,813.18C1076.57,813.471 1078.89,813.471 1080.93,813.471C1088.23,813.471 1092.91,809.243 1092.91,802.961C1092.91,796.979 1088.1,793.477 1080.35,793.477ZM1094.08,855.52L1075.39,825.884L1074.66,825.884L1074.66,855.52L1055.82,855.52L1055.82,779.606C1061.96,779.315 1073.49,779.175 1083.13,779.175C1101.81,779.175 1112.91,786.33 1112.91,801.073C1112.91,812.744 1105.46,820.048 1094.51,822.673C1095.98,824.712 1098.01,827.778 1100.2,830.989L1117,855.52L1094.08,855.52Z" style="fill:rgb(154,0,48);fill-rule:nonzero;"/>
            </g>
            <g transform="matrix(0.474609,0,0,0.474609,373.156,293.168)">
                <path d="M1187.03,810.695C1185.72,807.193 1184.26,802.815 1183.38,799.464L1183.23,799.464C1182.37,802.815 1181.18,806.753 1179.89,810.264L1173.16,828.66L1193.6,828.66L1187.03,810.695ZM1202.8,855.515L1198.12,842.224L1168.79,842.224L1163.97,855.515L1145,855.515L1173.16,779.601L1195.5,779.601L1223.52,855.515L1202.8,855.515Z" style="fill:rgb(154,0,48);fill-rule:nonzero;"/>
            </g>
            <g transform="matrix(0.474609,0,0,0.474609,373.156,293.168)">
                <path d="M431.231,306.887C427.818,306.174 426.237,310.015 426.237,310.015C408.31,347.03 367.728,387.067 317.75,400.772C176.966,439.368 179.623,296.194 241.722,230.443C350.726,115.03 489.775,164.702 499.263,249.061C524.335,472.114 129.099,597.157 134.19,444.551C137.024,359.385 358.264,193.112 800.941,247.37C1033.92,275.927 1284.55,403.237 1350.6,587.131C1350.6,587.131 1306.49,347.714 1006.97,240.563C807.439,169.174 494.148,180.561 322.416,259.84C222.929,305.763 113.53,383.875 131.605,466.502C157.355,584.2 507.223,539.995 543.005,325.309C571.453,154.636 381.298,93.468 253.733,206.121C158.367,290.339 165.061,461.819 319.839,412.96C386.085,392.042 418.838,345.048 433.584,312.013C433.584,312.013 435.381,307.745 431.231,306.887ZM1420.07,716.122C1405.84,929.956 1159.95,1092.98 844.745,1115.64C1065.75,1087.4 1253.47,1000.1 1328.22,865.622C1363.47,807.177 1383.71,742.505 1387.83,680.828C1392.79,605.676 1355.56,497.488 1294.87,420.027C1362.01,487.155 1426.3,622.577 1420.07,716.122Z" style="fill:rgb(88,89,91);fill-rule:nonzero;"/>
            </g>
        </g>
    </g>
</svg>
