<?xml version="1.0" encoding="UTF-8" standalone="no"?>
<!DOCTYPE svg PUBLIC "-//W3C//DTD SVG 1.1//EN" "http://www.w3.org/Graphics/SVG/1.1/DTD/svg11.dtd">
<svg width="100%" height="100%" viewBox="0 0 2439 800" version="1.1" xmlns="http://www.w3.org/2000/svg" xmlns:xlink="http://www.w3.org/1999/xlink" xml:space="preserve" xmlns:serif="http://www.serif.com/" style="fill-rule:evenodd;clip-rule:evenodd;stroke-linejoin:round;stroke-miterlimit:2;">
    <g transform="matrix(4.16667,0,0,4.16667,-4311.32,-2084.02)">
        <g transform="matrix(0.58584,0,0,0.58584,1011.29,169.709)">
            <path id="path2998" d="M285.593,679.746L169.021,679.746L169.021,714.337L251.694,714.337C247.61,762.843 207.254,783.528 169.161,783.528C120.425,783.528 77.897,745.183 77.897,691.436C77.897,639.08 118.437,598.757 169.269,598.757C208.486,598.757 231.595,623.758 231.595,623.758L255.815,598.677C255.815,598.677 224.728,564.069 168.031,564.069C95.841,564.069 39.988,625.003 39.988,690.82C39.988,755.313 92.527,818.203 169.874,818.203C237.905,818.203 287.704,771.6 287.704,702.688C287.704,688.149 285.593,679.746 285.593,679.746Z" style="fill:rgb(66,133,244);fill-rule:nonzero;"/>
            <path id="path3000" d="M381.086,654.697C333.255,654.697 298.976,692.092 298.976,735.706C298.976,779.964 332.224,818.054 381.648,818.054C426.391,818.054 463.046,783.857 463.046,736.657C463.046,682.559 420.408,654.697 381.086,654.697ZM381.562,686.781C405.084,686.781 427.374,705.797 427.374,736.441C427.374,766.434 405.178,785.992 381.454,785.992C355.386,785.992 334.821,765.114 334.821,736.203C334.821,707.911 355.131,686.781 381.562,686.781Z" style="fill:rgb(234,67,53);fill-rule:nonzero;"/>
            <path id="path3005" d="M559.673,654.697C511.841,654.697 477.562,692.092 477.562,735.706C477.562,779.964 510.811,818.054 560.235,818.054C604.977,818.054 641.632,783.857 641.632,736.657C641.632,682.559 598.994,654.697 559.673,654.697ZM560.148,686.781C583.671,686.781 605.96,705.797 605.96,736.441C605.96,766.434 583.765,785.992 560.04,785.992C533.972,785.992 513.407,765.114 513.407,736.203C513.407,707.911 533.717,686.781 560.148,686.781Z" style="fill:rgb(251,188,5);fill-rule:nonzero;"/>
            <path id="path3007" d="M734.824,654.784C690.92,654.784 656.41,693.237 656.41,736.397C656.41,785.561 696.419,818.162 734.067,818.162C757.346,818.162 769.724,808.922 778.863,798.315L778.863,814.422C778.863,842.602 761.752,859.477 735.926,859.477C710.977,859.477 698.463,840.926 694.114,830.399L662.723,843.522C673.859,867.068 696.277,891.625 736.186,891.625C779.837,891.625 813.108,864.13 813.108,806.466L813.108,659.692L778.863,659.692L778.863,673.528C768.34,662.182 753.941,654.784 734.824,654.784ZM738.002,686.802C759.527,686.802 781.63,705.182 781.63,736.57C781.63,768.474 759.574,786.057 737.526,786.057C714.12,786.057 692.342,767.052 692.342,736.873C692.342,705.514 714.961,686.802 738.002,686.802Z" style="fill:rgb(66,133,244);fill-rule:nonzero;"/>
            <path id="path3011" d="M965.374,654.589C923.959,654.589 889.187,687.539 889.187,736.16C889.187,787.606 927.946,818.119 969.352,818.119C1003.91,818.119 1025.12,799.213 1037.78,782.274L1009.54,763.487C1002.22,774.857 989.967,785.971 969.525,785.971C946.562,785.971 936.005,773.397 929.464,761.216L1038.99,715.772L1033.3,702.455C1022.72,676.374 998.034,654.589 965.374,654.589ZM966.801,686.002C981.724,686.002 992.464,693.937 997.025,703.449L923.886,734.019C920.733,710.352 943.155,686.002 966.801,686.002Z" style="fill:rgb(234,67,53);fill-rule:nonzero;"/>
            <rect id="path3015" x="836.976" y="572.513" width="35.975" height="240.754" style="fill:rgb(52,168,83);fill-rule:nonzero;"/>
        </g>
    </g>
</svg>
