<?xml version="1.0" encoding="UTF-8" standalone="no"?>
<!DOCTYPE svg PUBLIC "-//W3C//DTD SVG 1.1//EN" "http://www.w3.org/Graphics/SVG/1.1/DTD/svg11.dtd">
<svg width="100%" height="100%" viewBox="0 0 3052 219" version="1.1" xmlns="http://www.w3.org/2000/svg" xmlns:xlink="http://www.w3.org/1999/xlink" xml:space="preserve" xmlns:serif="http://www.serif.com/" style="fill-rule:evenodd;clip-rule:evenodd;stroke-linejoin:round;stroke-miterlimit:2;">
    <g transform="matrix(4.16667,0,0,4.16667,-2792.67,-3302.2)">
        <g transform="matrix(4.16667,0,0,4.16667,633.729,414.385)">
            <path d="M8.763,103.242L12.555,103.242L12.555,98.568L20.523,98.568L20.523,103.242L24.277,103.242L24.277,90.908L20.523,90.908L20.523,95.313L12.555,95.313L12.555,90.908L8.763,90.908L8.763,103.242Z" style="fill:rgb(35,31,32);"/>
            <path d="M25.618,103.242L29.87,103.242L30.981,101.058L38.642,101.058L39.791,103.242L44.005,103.242L37.225,90.908L32.321,90.908L25.618,103.242ZM34.773,93.78L37.225,98.377L32.36,98.377L34.773,93.78Z" style="fill:rgb(35,31,32);"/>
            <path d="M45.346,103.242L57.642,103.242L57.642,100.062L49.138,100.062L49.138,90.908L45.346,90.908L45.346,103.242Z" style="fill:rgb(35,31,32);"/>
            <path d="M59.212,103.242L71.508,103.242L71.508,100.062L63.005,100.062L63.005,90.908L59.212,90.908L59.212,103.242Z" style="fill:rgb(35,31,32);"/>
            <rect x="73.309" y="90.908" width="3.792" height="12.334" style="fill:rgb(35,31,32);"/>
            <path d="M79.859,103.242L91.887,103.242C94.033,103.242 95.641,102.667 95.641,99.948C95.641,98.109 95.028,97.228 93.381,96.998L93.381,96.96C94.416,96.653 95.182,96.232 95.182,94.125C95.182,91.712 93.726,90.908 90.738,90.908L79.859,90.908L79.859,103.242ZM83.613,98.339L90.393,98.339C91.198,98.339 91.772,98.53 91.772,99.373C91.772,100.062 91.198,100.254 90.393,100.254L83.613,100.254L83.613,98.339ZM83.613,93.857L90.317,93.857C91.006,93.857 91.428,94.125 91.428,94.853C91.428,95.542 91.006,95.772 90.317,95.772L83.613,95.772L83.613,93.857Z" style="fill:rgb(35,31,32);"/>
            <path d="M97.94,98.837C97.94,101.901 99.51,103.357 102.996,103.357L108.397,103.357C111.883,103.357 113.454,101.901 113.454,98.837L113.454,90.908L109.661,90.908L109.661,98.032C109.661,99.603 109.125,100.216 107.555,100.216L103.8,100.216C102.268,100.216 101.694,99.603 101.694,98.032L101.694,90.908L97.94,90.908L97.94,98.837Z" style="fill:rgb(35,31,32);"/>
            <path d="M119.774,93.972L125.673,93.972C126.861,93.972 127.435,94.163 127.435,95.274L127.435,95.657C127.435,96.538 127.052,96.96 126.018,96.96L119.774,96.96L119.774,93.972ZM115.982,103.242L119.774,103.242L119.774,100.024L125.712,100.024C126.899,100.024 127.282,100.446 127.282,101.748L127.282,103.242L131.036,103.242L131.036,101.135C131.036,99.105 130.117,98.607 129.006,98.415L129.006,98.377C130.73,97.956 131.113,96.998 131.113,95.351L131.113,94.546C131.113,92.363 130.308,90.908 127.397,90.908L115.982,90.908L115.982,103.242Z" style="fill:rgb(35,31,32);"/>
            <path d="M132.76,93.972L138.046,93.972L138.046,103.242L141.838,103.242L141.838,93.972L147.163,93.972L147.163,90.908L132.76,90.908L132.76,93.972Z" style="fill:rgb(35,31,32);"/>
            <path d="M148.542,98.913C148.542,102.514 150.572,103.357 153.943,103.357L160.034,103.357C163.443,103.357 165.435,102.514 165.435,98.913L165.435,95.236C165.435,91.635 163.443,90.754 160.034,90.754L153.943,90.754C150.572,90.754 148.542,91.635 148.542,95.236L148.542,98.913ZM152.411,96.385C152.411,94.853 152.794,93.934 154.786,93.934L159.191,93.934C161.183,93.934 161.566,94.853 161.566,96.385L161.566,97.726C161.566,99.526 161.183,100.216 159.421,100.216L154.556,100.216C152.794,100.216 152.411,99.526 152.411,97.726L152.411,96.385Z" style="fill:rgb(35,31,32);"/>
            <path d="M167.733,103.242L171.526,103.242L171.526,94.278L171.564,94.278L178.65,103.242L184.511,103.242L184.511,90.908L180.719,90.908L180.719,99.871L180.681,99.871L173.594,90.908L167.733,90.908L167.733,103.242Z" style="fill:rgb(35,31,32);"/>
        </g>
    </g>
</svg>
