<?xml version="1.0" encoding="UTF-8" standalone="no"?>
<!DOCTYPE svg PUBLIC "-//W3C//DTD SVG 1.1//EN" "http://www.w3.org/Graphics/SVG/1.1/DTD/svg11.dtd">
<svg width="100%" height="100%" viewBox="0 0 1306 600" version="1.1" xmlns="http://www.w3.org/2000/svg" xmlns:xlink="http://www.w3.org/1999/xlink" xml:space="preserve" xmlns:serif="http://www.serif.com/" style="fill-rule:evenodd;clip-rule:evenodd;stroke-linejoin:round;stroke-miterlimit:2;">
    <g transform="matrix(4.16667,0,0,4.16667,-985.812,-2121.81)">
        <g transform="matrix(0.825454,0,0,1.07087,236.595,508.548)">
            <path d="M353.664,135L0,135L4.06,115.875L357.747,115.868L353.664,135Z" style="fill:rgb(255,209,1);fill-rule:nonzero;"/>
            <path d="M268.872,82.992C265.712,79.592 267.603,72.823 269.22,65.184L274.74,39.234L297.433,39.234L301.544,19.917L278.836,19.917L282.862,0.64L261.471,0.64L247.452,66.962C245.339,76.872 244.547,84.619 248.846,92.967C252.847,100.726 266.503,108.133 283.793,103.453L287.616,85.526C275.891,86.977 271.181,85.452 268.872,82.992Z" style="fill:rgb(35,31,32);fill-rule:nonzero;"/>
            <path d="M87.712,0.64L77.503,48.536L39.962,48.536L50.144,0.64L28.554,0.64L6.723,103.453L28.299,103.453L35.836,67.829L73.397,67.829L65.833,103.453L87.232,103.453L109.084,0.64L87.712,0.64Z" style="fill:rgb(35,31,32);fill-rule:nonzero;"/>
            <path d="M210.975,27.181C203.486,33.436 199.231,41.62 196.475,54.544L186.081,103.453L207.491,103.453L216.119,62.893C218.157,53.405 219.716,47.471 223.281,43.818C228.185,38.809 235.289,38.531 243.818,39.234L247.936,19.917C232.891,16.093 219.752,19.842 210.975,27.181Z" style="fill:rgb(35,31,32);fill-rule:nonzero;"/>
            <path d="M378.081,19.917L311.257,19.917L307.161,39.234L345.931,39.234L297.44,84.88L293.5,103.453L360.328,103.453L364.447,84.15L325.451,84.15L374.181,38.294L378.081,19.917Z" style="fill:rgb(35,31,32);fill-rule:nonzero;"/>
            <path d="M166.466,50.261L132.144,50.261C133.35,45.639 140.639,34.268 154.178,35.512C168.734,36.855 166.466,50.261 166.466,50.261ZM152.543,18.382C145.313,18.382 135.422,20.62 125.702,28.249C103.793,45.439 92.915,104.967 139.966,104.967C152.162,104.967 165.734,101.112 175.151,94.003L166.636,79.628C159.514,85.104 123.648,97.015 127.426,67.944L183.494,67.944C183.517,67.888 190.643,44.64 180.368,30.582C171.61,18.592 155.488,18.382 152.543,18.382Z" style="fill:rgb(35,31,32);fill-rule:nonzero;"/>
            <path d="M378.618,98.474C378.033,101.314 375.078,103.816 372.208,103.798L372.2,103.798C369.689,103.75 368.257,102.196 368.213,99.952C368.213,99.601 368.25,99.235 368.334,98.862C368.903,96.033 371.831,93.549 374.7,93.541C377.264,93.59 378.689,95.135 378.743,97.403C378.743,97.727 378.698,98.093 378.618,98.474ZM374.796,92.727C374.788,92.727 374.771,92.726 374.737,92.726C371.409,92.744 368.219,95.438 367.521,98.698C367.429,99.115 367.388,99.535 367.388,99.952L367.388,99.961C367.394,102.6 369.301,104.612 372.186,104.621C372.2,104.621 372.208,104.612 372.208,104.612C375.539,104.595 378.722,101.884 379.43,98.637C379.515,98.214 379.561,97.8 379.561,97.403C379.576,94.749 377.656,92.74 374.796,92.727Z" style="fill:rgb(110,111,113);fill-rule:nonzero;"/>
            <path d="M374.855,97.774C374.748,98.26 374.329,98.603 373.697,98.603L372.448,98.603L372.799,96.934L374.022,96.934C374.65,96.934 374.97,97.219 374.855,97.774ZM374.312,95.825L371.773,95.825L370.561,101.517L371.82,101.517L372.208,99.679L373.205,99.679L374.022,101.517L375.503,101.517L374.538,99.479C375.329,99.216 375.946,98.629 376.149,97.701C376.396,96.515 375.674,95.825 374.312,95.825Z" style="fill:rgb(110,111,113);fill-rule:nonzero;"/>
        </g>
    </g>
</svg>
