<?xml version="1.0" encoding="UTF-8" standalone="no"?>
<!DOCTYPE svg PUBLIC "-//W3C//DTD SVG 1.1//EN" "http://www.w3.org/Graphics/SVG/1.1/DTD/svg11.dtd">
<svg width="100%" height="100%" viewBox="0 0 1626 492" version="1.1" xmlns="http://www.w3.org/2000/svg" xmlns:xlink="http://www.w3.org/1999/xlink" xml:space="preserve" xmlns:serif="http://www.serif.com/" style="fill-rule:evenodd;clip-rule:evenodd;stroke-linejoin:round;stroke-miterlimit:2;">
    <g transform="matrix(4.16667,0,0,4.16667,-6230.27,-3108.02)">
        <g transform="matrix(1,0,0,1,1339.55,215.396)">
            <g transform="matrix(2.08511,0,0,2.08511,149.261,387.083)">
                <path d="M147.121,79.28L161.63,79.409L162.444,79.711L165.778,84.244C167.512,81.711 169.912,80.244 172.845,79.577C175.779,78.91 178.579,78.91 181.513,79.577C182.447,79.711 183.113,80.244 183.246,80.377L183.246,89.578C182.58,90.245 181.913,90.245 181.113,89.578L179.913,88.912L178.846,88.378C177.246,87.978 176.179,88.245 175.246,88.912C174.579,89.578 174.445,90.379 174.579,91.312C175.246,92.379 176.179,93.312 177.779,93.979L181.246,95.713C183.513,97.313 185.247,98.913 186.447,100.913C187.514,102.913 187.914,105.314 187.78,107.714C187.78,109.314 187.247,110.914 186.447,112.381C185.513,113.981 184.447,115.048 182.847,116.248C180.58,117.582 177.913,118.248 175.112,118.381C171.912,118.381 169.245,117.715 167.111,116.381L164.845,114.914L163.778,117.048C163.111,117.982 162.578,118.381 162.444,118.248L146.443,118.381C145.109,118.248 144.176,117.315 143.509,116.248L143.109,114.914L143.109,81.978C143.412,80.459 145.722,79.334 147.121,79.28ZM163.111,103.264C162.91,103.803 162.615,104.914 161.911,104.914L154.577,104.914L154.577,108.247L164.445,108.247L165.778,106.247C166.178,105.58 166.845,105.047 167.512,105.047L171.112,107.58C172.445,108.247 173.779,108.647 174.846,108.914C175.912,108.914 176.579,108.381 177.113,107.314C177.246,105.98 176.846,104.914 175.512,104.247L173.779,103.58L172.179,102.646C166.178,98.379 163.511,94.246 163.778,89.978L154.844,89.978L154.577,93.979L161.911,93.979C162.663,94.142 162.888,94.7 163.037,95.314L163.111,103.264Z" style="fill:rgb(236,66,52);"/>
            </g>
            <g transform="matrix(2.08511,0,0,2.08511,149.261,387.083)">
                <path d="M3.094,71.31L3.094,117.582C3.094,118.248 3.494,118.381 4.161,118.381L16.829,118.381C17.495,118.381 17.896,117.982 17.896,117.315L17.896,99.98L26.163,99.98L26.163,117.315L26.43,117.982L27.23,118.381L39.098,118.915C39.498,118.915 39.898,118.648 40.165,118.248L40.431,117.315L40.431,71.71C40.431,70.91 40.431,70.243 40.165,69.976C39.898,69.31 39.765,68.91 39.098,68.91C34.564,68.643 30.43,68.91 26.563,69.043C26.163,69.043 25.896,69.709 25.896,71.31L25.896,85.311L25.763,85.578L17.896,85.578L17.762,85.311L17.762,72.377C17.762,71.31 17.762,70.376 17.495,70.243C17.229,69.31 17.095,68.91 16.429,68.91C11.895,68.643 7.761,68.91 3.894,69.043C3.494,69.043 3.227,69.709 3.094,71.31Z" style="fill:rgb(236,66,52);"/>
            </g>
            <g transform="matrix(2.08511,0,0,2.08511,149.261,387.083)">
                <path d="M130.441,79.577C133.775,79.311 136.842,79.311 139.908,79.577L140.575,79.711L140.842,80.644L141.109,117.315C140.575,117.982 140.175,118.248 139.908,118.381L130.441,118.381C129.774,118.248 129.241,117.715 129.107,117.048L129.107,85.578L126.574,89.578C125.507,91.045 124.574,92.245 123.907,93.045C123.507,93.312 122.84,93.045 122.173,92.379L120.44,91.312C119.106,90.645 117.506,90.379 115.906,90.645C114.439,90.912 113.106,91.579 111.906,92.645C109.505,94.912 108.572,97.313 109.239,99.98C109.505,101.313 109.905,102.646 111.106,103.713C111.906,104.914 113.106,105.713 114.439,106.247L115.239,106.647C115.773,106.647 115.906,106.38 116.173,106.247L116.173,98.913C116.439,98.246 117.24,97.713 118.44,97.713L125.507,97.713L126.84,97.979C127.241,98.246 127.507,98.646 127.507,99.046L127.507,115.581C126.44,116.248 125.24,116.915 123.907,117.315C120.173,118.915 115.906,118.915 111.772,117.582C107.905,116.381 104.438,114.248 101.104,111.314L99.904,109.981L99.104,108.647L99.104,115.314C95.504,117.582 91.77,118.648 87.903,118.381C84.169,118.381 80.436,117.315 76.835,115.314C73.901,113.714 71.901,111.714 70.434,109.314C69.235,111.714 67.501,113.981 65.234,115.581C62.834,117.582 60.433,118.381 57.9,118.648C55.1,118.915 52.566,118.248 50.166,117.048C47.899,115.981 46.165,114.248 44.565,111.981C43.498,109.981 42.565,107.98 42.432,105.58L42.432,80.911C42.432,80.644 42.565,80.377 42.831,79.977L43.765,79.577C46.165,79.311 49.232,79.311 52.833,79.577L53.499,79.977L53.899,80.911L53.899,105.58C53.899,106.247 54.433,106.647 55.233,107.047L57.233,107.047C57.9,106.914 58.433,106.247 58.567,105.314L58.567,80.911C58.567,80.644 58.833,80.377 59.1,79.977L59.9,79.577C62.834,79.044 66.167,79.044 69.901,79.577C70.434,79.577 70.835,80.244 71.101,81.578L71.101,88.245C73.501,84.911 76.435,82.244 80.169,80.644C83.903,79.044 87.77,78.91 91.77,79.577C95.504,80.377 98.438,81.978 100.171,83.978C100.438,84.244 100.438,84.378 100.171,84.911C99.238,86.378 97.504,89.045 94.837,93.045C94.57,93.579 94.437,93.712 94.17,93.579C93.104,92.379 91.903,91.712 90.57,91.312C89.103,90.912 87.77,90.912 86.436,91.312C85.236,91.579 83.903,91.979 82.836,93.045C81.769,93.979 81.102,95.046 80.569,96.379C80.169,97.713 80.169,99.046 80.436,100.38C80.569,101.98 81.102,103.047 81.903,103.98C83.503,105.98 85.103,106.914 87.103,106.914L87.236,106.647L87.236,99.046C87.236,98.379 87.77,97.979 88.57,97.713L97.504,97.713C97.504,94.246 98.438,90.912 100.438,87.711C102.438,84.645 104.838,82.378 108.172,80.911C111.239,79.311 114.839,78.644 118.84,79.044C122.84,79.577 126.174,80.911 128.574,83.045L129.107,83.045L129.107,80.644C129.241,79.977 129.774,79.577 130.441,79.577Z" style="fill:rgb(236,66,52);"/>
            </g>
            <g transform="matrix(2.08511,0,0,2.08511,149.261,387.083)">
                <path d="M158.577,119.715L159.911,119.715C161.111,119.715 161.777,119.982 162.178,120.382C162.844,121.049 163.111,121.715 163.111,122.649C163.111,123.582 162.844,124.249 162.178,124.649C161.777,125.049 161.111,125.316 159.911,125.316L158.577,125.316L158.577,119.715ZM159.911,124.249C160.578,124.249 161.111,124.249 161.511,123.982L161.911,122.649C161.911,121.982 161.777,121.315 161.244,121.049C161.111,120.915 160.444,120.915 159.777,120.915L159.777,124.249L159.911,124.249Z" style="fill:rgb(236,66,52);"/>
            </g>
            <g transform="matrix(2.08511,0,0,2.08511,149.261,387.083)">
                <rect x="163.511" y="119.715" width="1.067" height="5.601" style="fill:rgb(236,66,52);"/>
            </g>
            <g transform="matrix(2.08511,0,0,2.08511,149.261,387.083)">
                <path d="M164.578,125.316L167.111,119.715L167.778,119.715L169.912,125.316L168.845,125.316L168.445,123.715L166.445,123.715L165.778,125.316L164.578,125.316ZM167.912,122.915L167.245,121.315L166.845,122.915L167.912,122.915Z" style="fill:rgb(236,66,52);"/>
            </g>
            <g transform="matrix(2.08511,0,0,2.08511,149.261,387.083)">
                <path d="M170.179,125.316L170.179,119.715L171.512,119.715C172.179,119.715 172.845,119.982 173.112,120.248C173.512,120.382 173.779,120.915 173.779,121.582C173.779,122.249 173.512,122.649 173.112,122.915C172.845,123.049 172.179,123.315 171.512,123.315L171.245,123.315L171.245,125.316L170.179,125.316ZM171.245,122.249L172.179,122.249C172.445,121.982 172.579,121.715 172.579,121.582L172.179,120.915L171.245,120.915L171.245,122.249Z" style="fill:rgb(236,66,52);"/>
            </g>
            <g transform="matrix(2.08511,0,0,2.08511,149.261,387.083)">
                <path d="M177.113,120.915L175.112,120.915L175.112,121.982L177.113,121.982L177.113,123.049L175.112,123.049L175.112,124.249L177.113,124.249L177.113,125.316L174.179,125.316L174.179,119.715L177.113,119.715L177.113,120.915Z" style="fill:rgb(236,66,52);"/>
            </g>
            <g transform="matrix(2.08511,0,0,2.08511,149.261,387.083)">
                <path d="M180.58,120.248C181.113,120.382 181.246,120.915 181.246,121.582C181.246,121.982 181.113,122.382 180.846,122.649C180.58,122.915 180.179,123.049 179.779,123.315L181.246,125.316L179.913,125.316L178.579,123.049L178.579,125.316L177.513,125.316L177.513,119.715L179.113,119.715C179.779,119.715 180.446,119.982 180.58,120.248ZM179.913,121.049L179.113,120.915L178.579,120.915L178.579,122.382L179.113,122.382C179.513,122.382 179.779,122.382 179.913,122.249C180.179,121.982 180.179,121.715 180.179,121.582C180.179,121.315 180.179,121.049 179.913,121.049Z" style="fill:rgb(236,66,52);"/>
            </g>
            <g transform="matrix(2.08511,0,0,2.08511,149.261,387.083)">
                <path d="M182.18,120.248L183.246,119.715C183.78,119.715 184.18,119.982 184.447,120.248L184.847,121.315L183.78,121.315C183.78,120.915 183.513,120.648 183.113,120.648C182.847,120.648 182.58,120.915 182.58,121.315C182.58,121.582 182.847,121.715 183.246,121.982C183.913,122.249 184.18,122.249 184.447,122.382C184.847,122.649 185.113,123.049 185.113,123.715C185.113,124.249 184.847,124.649 184.447,124.916C184.18,125.049 183.78,125.316 183.246,125.316C182.58,125.316 182.18,125.049 181.913,124.916C181.78,124.649 181.513,124.249 181.513,123.715L182.447,123.715C182.447,124.249 182.58,124.382 183.246,124.382C183.78,124.382 183.913,124.249 183.913,123.715C183.913,123.315 183.78,123.049 183.113,122.915L181.913,122.382L181.78,121.315L182.18,120.248Z" style="fill:rgb(236,66,52);"/>
            </g>
            <g transform="matrix(2.08511,0,0,2.08511,149.261,387.083)">
                <path d="M187.514,79.977C188.18,79.977 188.847,80.244 189.247,80.911C189.914,81.578 190.181,82.244 190.181,82.911C190.181,83.578 189.914,84.244 189.247,84.911C188.847,85.311 188.18,85.578 187.514,85.578C186.58,85.578 185.914,85.311 185.513,84.911C184.847,84.244 184.58,83.578 184.58,82.911C184.58,82.244 184.847,81.578 185.513,80.911C185.914,80.244 186.58,79.977 187.514,79.977ZM187.514,80.377C186.847,80.377 186.18,80.644 185.78,81.044C185.247,81.578 185.113,82.244 185.113,82.911C185.113,83.578 185.247,83.978 185.78,84.378C186.18,85.045 186.847,85.311 187.514,85.311C188.18,85.311 188.58,85.045 189.114,84.378C189.514,83.978 189.781,83.578 189.781,82.911C189.781,82.244 189.514,81.578 189.114,81.044C188.58,80.644 188.18,80.377 187.514,80.377Z" style="fill:rgb(236,66,52);"/>
            </g>
            <g transform="matrix(2.08511,0,0,2.08511,149.261,387.083)">
                <path d="M187.78,81.311C188.447,81.311 188.847,81.578 188.847,82.244C188.847,82.644 188.58,82.911 188.447,82.911C188.58,83.045 188.58,83.311 188.58,83.711L188.847,84.378L188.18,84.378L187.914,83.711C187.914,83.578 187.78,83.311 187.514,83.311L186.847,83.311L186.847,84.378L186.18,84.378L186.18,81.311L187.78,81.311ZM186.847,81.978L186.847,82.644L187.514,82.644C187.914,82.644 188.18,82.378 188.18,82.244L187.78,81.978L186.847,81.978Z" style="fill:rgb(236,66,52);"/>
            </g>
        </g>
    </g>
</svg>
