<?xml version="1.0" encoding="UTF-8" standalone="no"?>
<!DOCTYPE svg PUBLIC "-//W3C//DTD SVG 1.1//EN" "http://www.w3.org/Graphics/SVG/1.1/DTD/svg11.dtd">
<svg width="100%" height="100%" viewBox="0 0 757 1007" version="1.1" xmlns="http://www.w3.org/2000/svg" xmlns:xlink="http://www.w3.org/1999/xlink" xml:space="preserve" xmlns:serif="http://www.serif.com/" style="fill-rule:evenodd;clip-rule:evenodd;stroke-linejoin:round;stroke-miterlimit:2;">
    <g transform="matrix(4.16667,0,0,4.16667,-3015.77,-1920.01)">
        <g transform="matrix(0.518394,0,0,0.518394,681.866,447.707)">
            <g transform="matrix(1,0,0,1,431.139,446.095)">
                <path d="M0,-375.48C0,-375.48 -37.35,-346.412 -89.966,-359.557C-151.309,-374.889 -175.14,-420.833 -175.14,-420.833C-175.14,-420.833 -198.968,-374.889 -260.313,-359.557C-312.926,-346.409 -350.277,-375.48 -350.277,-375.48L-350.277,-70.498C-350.269,-60.131 -345.937,-16.115 -263.831,-4.25C-231.414,0.443 -207.198,10.862 -189.801,27.605C-183.534,33.616 -178.772,39.737 -175.137,45.353C-171.491,39.739 -166.75,33.616 -160.491,27.605C-143.073,10.862 -118.857,0.443 -86.44,-4.25C-4.342,-16.115 -0.01,-60.131 0.006,-70.498L0.006,-375.48L0,-375.48Z" style="fill:rgb(1,51,105);fill-rule:nonzero;"/>
            </g>
            <g>
                <g transform="matrix(1,0,0,1,255.999,215.818)">
                    <path d="M0,244.582C0,244.582 23.829,215.211 85.747,205.66C156.672,194.716 154.565,161.413 154.57,159.726L154.57,0L-154.567,0L-154.567,159.724C-154.567,161.402 -156.662,194.711 -85.747,205.657C-23.831,215.214 0,244.582 0,244.582" style="fill:white;fill-rule:nonzero;"/>
                </g>
                <g transform="matrix(1,0,0,1,183.94,310.537)">
                    <path d="M0,22.018L-0.01,-53.945L-9.549,-59.288L-9.549,-78.985L33.864,-78.985L33.864,-59.288L24.786,-53.945L24.786,101.003L1.582,94.048L-31.964,-4.929L-31.969,60.323L-21.317,68.504L-21.317,88.614L-67.891,76.776L-67.891,59.634L-57.234,55.466L-57.234,-53.881L-68.152,-59.288L-68.152,-78.985L-32.906,-78.985L0,22.018Z" style="fill:rgb(213,10,10);fill-rule:nonzero;"/>
                </g>
                <g transform="matrix(1,0,0,1,263.849,262.383)">
                    <path d="M0,139.642L9.298,150.78L9.298,170.474L-36.836,153.238L-36.836,136.518L-26.653,132.348L-26.653,-5.79L-36.775,-10.909L-36.775,-30.832L43.33,-30.832L43.33,9.255L25.723,9.255L20.388,-7.203L0,-7.203L0,39.149L15.301,39.149L21.322,30.347L33.6,30.347L33.6,71.594L21.322,71.594L15.526,63.253L0.002,63.253L0.002,139.642L0,139.642Z" style="fill:rgb(213,10,10);fill-rule:nonzero;"/>
                </g>
                <g transform="matrix(1,0,0,1,314.776,231.552)">
                    <path d="M0,177.446L0,157.75L11.459,148.344L11.459,25.039L1.675,19.919L1.675,0L47.867,0L47.867,19.922L38.79,25.042L38.79,140.723L58.64,135.36L62.446,105.042L81.437,105.042L81.437,155.691L0,177.446Z" style="fill:rgb(213,10,10);fill-rule:nonzero;"/>
                </g>
                <g transform="matrix(1,0,0,1,109.467,172.87)">
                    <path d="M0,10.273L-13.98,-0.246L3.105,-0.246L8.748,-16.433L14.39,-0.246L31.475,-0.246L17.495,10.275L22.638,26.706L8.748,16.947L-5.143,26.706L0,10.273Z" style="fill:white;fill-rule:nonzero;"/>
                </g>
                <g transform="matrix(1,0,0,1,170.126,172.87)">
                    <path d="M0,10.273L-13.98,-0.246L3.105,-0.246L8.745,-16.433L14.387,-0.246L31.476,-0.246L17.495,10.275L22.638,26.706L8.745,16.947L-5.146,26.706L0,10.273Z" style="fill:white;fill-rule:nonzero;"/>
                </g>
                <g transform="matrix(1,0,0,1,109.467,118.121)">
                    <path d="M0,10.278L-13.98,-0.241L3.105,-0.241L8.748,-16.43L14.39,-0.241L31.475,-0.241L17.495,10.278L22.638,26.708L8.748,16.947L-5.143,26.708L0,10.278Z" style="fill:white;fill-rule:nonzero;"/>
                </g>
                <g transform="matrix(1,0,0,1,170.126,118.121)">
                    <path d="M0,10.278L-13.98,-0.241L3.105,-0.241L8.745,-16.43L14.387,-0.241L31.476,-0.241L17.495,10.278L22.638,26.708L8.745,16.947L-5.146,26.708L0,10.278Z" style="fill:white;fill-rule:nonzero;"/>
                </g>
                <g transform="matrix(1,0,0,1,407.68,156.434)">
                    <path d="M0,43.141L-13.894,33.38L-27.784,43.141L-22.644,26.708L-36.621,16.186L-19.536,16.186L-13.894,0L-8.254,16.186L8.831,16.186L-5.146,26.708L0,43.141Z" style="fill:white;fill-rule:nonzero;"/>
                </g>
                <g transform="matrix(1,0,0,1,347.019,156.434)">
                    <path d="M0,43.141L-13.893,33.38L-27.786,43.141L-22.641,26.708L-36.623,16.186L-19.535,16.186L-13.893,0L-8.25,16.186L8.835,16.186L-5.147,26.708L0,43.141Z" style="fill:white;fill-rule:nonzero;"/>
                </g>
                <g transform="matrix(1,0,0,1,407.68,101.691)">
                    <path d="M0,43.141L-13.894,33.38L-27.784,43.141L-22.644,26.708L-36.621,16.187L-19.536,16.187L-13.894,0L-8.254,16.187L8.831,16.187L-5.146,26.708L0,43.141Z" style="fill:white;fill-rule:nonzero;"/>
                </g>
                <g transform="matrix(1,0,0,1,347.019,101.691)">
                    <path d="M0,43.141L-13.893,33.38L-27.786,43.141L-22.641,26.708L-36.623,16.187L-19.535,16.187L-13.893,0L-8.25,16.187L8.835,16.187L-5.147,26.708L0,43.141Z" style="fill:white;fill-rule:nonzero;"/>
                </g>
                <g transform="matrix(1,0,0,1,269.296,163.531)">
                    <path d="M0,-47.051C-6.224,-52.174 -13.199,-55.491 -20.613,-57.071C-18.819,-58.768 -16.98,-60.222 -15.365,-61.569C-6.104,-59.342 0.133,-55.192 4.38,-51.664C2.862,-50.11 1.393,-48.594 0,-47.051M-8.988,-36.235C-14.917,-41.214 -22.131,-44.929 -30.305,-46.562C-29.056,-48.175 -27.589,-49.893 -26.189,-51.48C-19.95,-50.371 -11.95,-47.084 -4.977,-41.329C-6.405,-39.624 -7.733,-37.886 -8.988,-36.235M-17.062,-24.899C-23.458,-30.229 -30.917,-33.496 -38.236,-34.891C-38.236,-34.891 -35.991,-38.554 -34.714,-40.456C-25.761,-38.685 -18.494,-34.499 -13.412,-30.198C-14.717,-28.332 -15.957,-26.546 -17.062,-24.899M25.216,-79.049C25.216,-79.049 17.974,-75.275 7.869,-65.337C10.15,-64.05 12.716,-62.244 14.185,-61.026C12.659,-59.672 11.098,-58.213 9.648,-56.838C3.074,-62.258 -3.773,-65.009 -9.078,-66.305C-7.316,-67.567 -5.447,-68.808 -3.6,-70.011C-0.748,-69.284 2.007,-68.163 2.007,-68.163C13.422,-76.852 23.293,-80.6 23.293,-80.6C23.293,-80.6 22.151,-81.16 19.098,-81.122C-25.774,-80.541 -67.118,-47.038 -59.313,10.285C-58.478,16.366 -56.115,27.422 -53.112,32.271C-52.111,22.729 -48.53,1.62 -37.891,-20.998C-41.587,-22.324 -44.657,-22.869 -44.657,-22.869C-43.571,-25.148 -42.061,-28.053 -42.061,-28.053C-34.189,-26.569 -27.233,-23.276 -21.209,-18.505C-22.656,-16.17 -23.634,-14.644 -24.323,-13.443C-26.435,-15.105 -28.567,-16.541 -30.92,-17.844C-42.875,3.058 -48.425,22.786 -50.675,33.141C-50.552,33.779 -49.25,34.109 -48.202,33.973C0.968,27.609 23.987,2.529 30.991,-24.651C35.6,-42.481 34.092,-61.126 27.922,-76.33C27.489,-77.4 26.647,-79.174 25.216,-79.049" style="fill:white;fill-rule:nonzero;"/>
                </g>
            </g>
        </g>
    </g>
</svg>
