<?xml version="1.0" encoding="UTF-8" standalone="no"?>
<!DOCTYPE svg PUBLIC "-//W3C//DTD SVG 1.1//EN" "http://www.w3.org/Graphics/SVG/1.1/DTD/svg11.dtd">
<svg width="100%" height="100%" viewBox="0 0 1838 354" version="1.1" xmlns="http://www.w3.org/2000/svg" xmlns:xlink="http://www.w3.org/1999/xlink" xml:space="preserve" xmlns:serif="http://www.serif.com/" style="fill-rule:evenodd;clip-rule:evenodd;stroke-linejoin:round;stroke-miterlimit:2;">
    <g transform="matrix(4.16667,0,0,4.16667,-8182.4,-3194)">
        <g transform="matrix(4.16667,0,0,4.16667,331.021,812.833)">
            <g transform="matrix(0.56583,0,0,0.536309,389.91,-52.9605)">
                <path d="M21.51,115.957C27.753,116.259 34.223,112.497 37.006,108.698C39.865,104.974 40.467,102.529 40.956,97.79C41.294,95.42 40.73,92.938 40.015,90.681C39,87.597 37.006,84.927 34.637,82.82C30.687,79.36 24.406,77.592 18.802,78.607C14.852,79.435 11.768,81.09 9.36,83.234C7.668,84.889 6.54,86.581 5.524,88.274C4.96,89.515 4.584,90.644 4.132,91.923C2.477,97.565 3.982,103.996 6.953,108.134C9.812,112.158 14.664,114.98 19.328,115.694C20.193,115.92 20.757,115.957 21.51,115.957ZM51.826,115.581L51.826,84.927L59.762,84.927L59.762,115.581L68.112,115.581L68.112,84.927L69.391,84.927C73.529,84.889 76.087,87.334 76.124,90.719L76.124,115.581L83.948,115.581L83.948,90.079C83.684,82.519 77.215,78.194 71.423,78.156L43.589,78.156L43.589,115.581L51.826,115.581ZM96.511,115.656L96.511,100.273L96.473,84.889L104.861,84.889C108.208,84.889 108.885,85.002 110.578,86.619C111.932,88.011 112.007,90.004 111.104,92.261C110.578,93.878 108.472,95.534 105.199,95.571L98.617,95.571L113.136,115.581L122.238,115.581L111.669,100.498C112.421,100.498 114.076,99.972 115.092,99.069C116.746,97.715 118.025,95.909 118.74,93.465C119.568,90.38 119.191,85.867 116.972,82.782C113.512,78.194 107.494,78.156 106.064,78.156L88.499,78.156L88.499,115.656L96.511,115.656ZM161.657,115.619L169.18,115.619L169.142,85.039L175.912,85.039C179.899,84.964 182.983,87.371 182.983,90.719L183.021,115.619L190.544,115.619L190.544,90.004C190.544,82.519 183.999,78.419 178.056,78.419L161.657,78.419L161.657,115.619ZM20.87,108.059C22.864,108.284 23.992,108.284 25.233,107.795C28.092,106.667 30.161,105.163 31.703,102.755C31.966,102.379 32.643,101.326 32.831,100.348C33.471,97.715 33.395,95.834 32.643,93.465C32.417,92.9 32.23,92.411 31.966,91.923C30.462,89.29 28.318,87.597 25.61,86.619C21.735,85.453 17.447,86.581 14.815,88.838C12.031,91.208 10.639,94.894 11.166,98.58C11.392,99.934 11.994,101.439 12.558,102.605C15.003,106.667 18.049,107.683 20.87,108.059ZM140.067,85.829C134.049,85.829 129.084,90.794 129.084,96.85C129.084,102.943 134.049,107.871 140.067,107.871C146.123,107.871 151.05,102.943 151.05,96.85C151.05,90.794 146.123,85.829 140.067,85.829ZM140.067,78.043C129.686,78.043 121.185,86.469 121.185,96.887C121.185,107.269 129.686,115.732 140.067,115.732C150.41,115.732 158.873,107.269 158.873,96.887C158.873,86.469 150.41,78.043 140.067,78.043Z" style="fill:rgb(0,145,213);"/>
            </g>
        </g>
    </g>
</svg>
