<?xml version="1.0" encoding="UTF-8" standalone="no"?>
<!DOCTYPE svg PUBLIC "-//W3C//DTD SVG 1.1//EN" "http://www.w3.org/Graphics/SVG/1.1/DTD/svg11.dtd">
<svg width="100%" height="100%" viewBox="0 0 2304 363" version="1.1" xmlns="http://www.w3.org/2000/svg" xmlns:xlink="http://www.w3.org/1999/xlink" xml:space="preserve" xmlns:serif="http://www.serif.com/" style="fill-rule:evenodd;clip-rule:evenodd;stroke-linejoin:round;stroke-miterlimit:2;">
    <g transform="matrix(4.16667,0,0,4.16667,-7202.09,-2276.29)">
        <g transform="matrix(1,0,0,1,1728.42,546.229)">
            <path d="M1.792,83.939L1.792,67.389C11.255,70.355 19.625,71.841 26.916,71.841C36.967,71.841 41.986,69.195 41.986,63.913C41.986,61.941 41.255,60.29 39.799,58.944C38.299,57.529 34.45,55.548 28.285,53.028C17.201,48.489 9.982,44.632 6.621,41.431C2.255,37.221 0.086,31.892 0.086,25.466C0.086,17.179 3.263,10.872 9.602,6.529C15.863,2.232 24.037,0.08 34.104,0.08C39.659,0.08 47.697,1.105 58.199,3.133L58.199,19.049C50.379,15.943 43.128,14.386 36.417,14.386C26.978,14.386 22.258,16.977 22.258,22.141C22.258,24.082 23.21,25.646 25.106,26.874C26.695,27.862 31.061,29.942 38.187,33.144C48.459,37.682 55.295,41.626 58.709,44.976C62.76,48.966 64.783,54.108 64.783,60.43C64.783,69.501 60.818,76.419 52.881,81.184C46.461,85.057 38.125,86.992 27.899,86.992C19.255,86.992 10.548,85.973 1.792,83.939ZM78.052,85.293L78.052,1.544L101.564,1.544L101.564,85.293L78.052,85.293ZM123.138,85.293L123.138,1.544L183.447,1.544L183.447,16.686L145.792,16.686L145.792,35.601L178.577,35.601L178.577,49.412L145.792,49.412L145.792,69.297L184.421,69.297L184.421,85.293L123.138,85.293ZM199.775,85.293L199.775,1.544L230.264,1.544L251.446,55.055L273.156,1.544L302.111,1.544L302.111,85.293L279.819,85.293L279.819,25.999L255.127,86.138L240.56,86.138L216.342,25.999L216.342,85.293L199.775,85.293ZM323.679,85.293L323.679,1.544L383.985,1.544L383.985,16.686L346.339,16.686L346.339,35.601L379.109,35.601L379.109,49.412L346.339,49.412L346.339,69.297L384.962,69.297L384.962,85.293L323.679,85.293ZM400.44,85.293L400.44,1.544L427.69,1.544L456.604,57.606L456.604,1.544L473.168,1.544L473.168,85.293L446.684,85.293L417.007,28.472L417.007,85.293L400.44,85.293ZM489.853,83.939L489.853,67.389C499.245,70.355 507.613,71.841 514.975,71.841C525.036,71.841 530.063,69.195 530.063,63.913C530.063,61.941 529.339,60.29 527.923,58.944C526.429,57.529 522.567,55.548 516.353,53.028C505.31,48.536 498.072,44.663 494.683,41.431C490.333,37.251 488.145,31.914 488.145,25.395C488.145,17.156 491.323,10.872 497.664,6.529C503.931,2.232 512.106,0.08 522.182,0.08C527.852,0.08 535.183,0.988 544.191,2.78L546.267,3.133L546.267,19.049C538.447,15.943 531.172,14.386 524.431,14.386C515.024,14.386 510.335,16.977 510.335,22.141C510.335,24.082 511.272,25.646 513.176,26.874C514.685,27.815 519.074,29.911 526.318,33.144C536.512,37.682 543.341,41.626 546.777,44.976C550.82,48.966 552.842,54.108 552.842,60.43C552.842,69.501 548.902,76.419 541.005,81.184C534.547,85.057 526.202,86.992 515.974,86.992C507.323,86.992 498.616,85.973 489.853,83.939Z" style="fill:rgb(0,171,173);"/>
        </g>
    </g>
</svg>
