<?xml version="1.0" encoding="UTF-8" standalone="no"?>
<!DOCTYPE svg PUBLIC "-//W3C//DTD SVG 1.1//EN" "http://www.w3.org/Graphics/SVG/1.1/DTD/svg11.dtd">
<svg width="100%" height="100%" viewBox="0 0 1933 272" version="1.1" xmlns="http://www.w3.org/2000/svg" xmlns:xlink="http://www.w3.org/1999/xlink" xml:space="preserve" xmlns:serif="http://www.serif.com/" style="fill-rule:evenodd;clip-rule:evenodd;stroke-linejoin:round;stroke-miterlimit:2;">
    <g transform="matrix(4.16667,0,0,4.16667,-614.113,-3291.73)">
        <g transform="matrix(6.54464,0,0,6.54464,147.387,789.648)">
            <g>
                <path d="M57.628,0.806C57.628,1.22 57.292,1.557 56.877,1.557C56.463,1.557 56.127,1.22 56.127,0.806C56.127,0.392 56.463,0.056 56.877,0.056C57.292,0.056 57.628,0.392 57.628,0.806Z" style="fill:rgb(9,1,2);fill-rule:nonzero;"/>
                <path d="M21.871,2.546L21.871,3.775L20.525,3.775L20.525,7.087C20.525,7.398 20.577,7.605 20.68,7.709C20.784,7.812 20.991,7.864 21.302,7.864C21.405,7.864 21.504,7.86 21.599,7.851C21.694,7.842 21.785,7.829 21.871,7.812L21.871,9.235C21.716,9.261 21.543,9.279 21.353,9.287C21.164,9.296 20.978,9.3 20.797,9.3C20.512,9.3 20.243,9.281 19.988,9.242C19.734,9.203 19.509,9.128 19.315,9.015C19.121,8.903 18.968,8.744 18.856,8.537C18.744,8.33 18.688,8.058 18.688,7.721L18.688,3.775L17.575,3.775L17.575,2.546L18.688,2.546L18.688,0.54L20.525,0.54L20.525,2.546L21.871,2.546Z" style="fill:rgb(9,1,2);fill-rule:nonzero;"/>
                <path d="M26.238,4.111C26.018,3.87 25.684,3.749 25.235,3.749C24.942,3.749 24.698,3.799 24.504,3.898C24.31,3.997 24.155,4.12 24.038,4.267C23.922,4.413 23.84,4.569 23.793,4.732C23.745,4.896 23.717,5.043 23.708,5.172L26.698,5.172C26.611,4.707 26.458,4.353 26.238,4.111ZM24.161,7.631C24.437,7.898 24.834,8.032 25.352,8.032C25.723,8.032 26.042,7.939 26.309,7.754C26.577,7.568 26.741,7.372 26.801,7.165L28.419,7.165C28.16,7.967 27.763,8.541 27.228,8.886C26.693,9.231 26.046,9.404 25.287,9.404C24.761,9.404 24.286,9.32 23.864,9.151C23.441,8.983 23.083,8.744 22.79,8.433C22.496,8.123 22.27,7.752 22.11,7.32C21.951,6.889 21.871,6.415 21.871,5.897C21.871,5.397 21.953,4.931 22.117,4.499C22.281,4.068 22.513,3.695 22.816,3.38C23.117,3.065 23.478,2.817 23.896,2.636C24.314,2.455 24.778,2.364 25.287,2.364C25.856,2.364 26.352,2.474 26.775,2.694C27.198,2.914 27.545,3.21 27.817,3.581C28.089,3.952 28.285,4.375 28.406,4.849C28.526,5.323 28.569,5.819 28.535,6.337L23.708,6.337C23.734,6.932 23.885,7.364 24.161,7.631Z" style="fill:rgb(9,1,2);fill-rule:nonzero;"/>
                <path d="M33.355,4.111C33.135,3.87 32.801,3.749 32.352,3.749C32.059,3.749 31.815,3.799 31.621,3.898C31.427,3.997 31.272,4.12 31.156,4.267C31.039,4.413 30.957,4.569 30.91,4.732C30.862,4.896 30.834,5.043 30.826,5.172L33.815,5.172C33.728,4.707 33.575,4.353 33.355,4.111ZM31.278,7.631C31.554,7.898 31.951,8.032 32.469,8.032C32.84,8.032 33.159,7.939 33.427,7.754C33.694,7.568 33.858,7.372 33.918,7.165L35.536,7.165C35.277,7.967 34.88,8.541 34.345,8.886C33.81,9.231 33.163,9.404 32.404,9.404C31.878,9.404 31.403,9.32 30.981,9.151C30.558,8.983 30.2,8.744 29.907,8.433C29.613,8.123 29.387,7.752 29.228,7.32C29.068,6.889 28.988,6.415 28.988,5.897C28.988,5.397 29.07,4.931 29.234,4.499C29.398,4.068 29.631,3.695 29.933,3.38C30.235,3.065 30.595,2.817 31.013,2.636C31.432,2.455 31.895,2.364 32.404,2.364C32.974,2.364 33.47,2.474 33.892,2.694C34.315,2.914 34.662,3.21 34.934,3.581C35.206,3.952 35.402,4.375 35.523,4.849C35.643,5.323 35.687,5.819 35.652,6.337L30.826,6.337C30.851,6.932 31.002,7.364 31.278,7.631Z" style="fill:rgb(9,1,2);fill-rule:nonzero;"/>
                <rect x="36.114" y="0.504" width="1.838" height="8.731" style="fill:rgb(9,1,2);fill-rule:nonzero;"/>
                <path d="M46.278,4.603C46.369,4.387 46.489,4.2 46.64,4.04C46.791,3.881 46.972,3.755 47.184,3.665C47.395,3.574 47.63,3.529 47.889,3.529C48.139,3.529 48.366,3.579 48.568,3.678C48.771,3.777 48.944,3.906 49.086,4.066C49.228,4.226 49.34,4.413 49.422,4.629C49.504,4.845 49.554,5.069 49.571,5.302L46.129,5.302C46.138,5.052 46.187,4.819 46.278,4.603ZM48.969,7.974C48.706,8.159 48.359,8.252 47.928,8.252C47.617,8.252 47.35,8.198 47.126,8.09C46.901,7.982 46.716,7.838 46.569,7.657C46.422,7.476 46.312,7.264 46.239,7.023C46.166,6.781 46.129,6.531 46.129,6.272L51.046,6.272C51.107,5.772 51.074,5.287 50.949,4.816C50.824,4.346 50.624,3.93 50.348,3.568C50.071,3.205 49.724,2.914 49.306,2.694C48.887,2.474 48.415,2.364 47.889,2.364C47.389,2.364 46.94,2.459 46.543,2.649C46.146,2.839 45.808,3.095 45.527,3.419C45.247,3.742 45.031,4.118 44.88,4.545C44.729,4.972 44.654,5.423 44.654,5.897C44.654,6.415 44.725,6.889 44.868,7.32C45.01,7.752 45.221,8.123 45.502,8.433C45.782,8.744 46.125,8.985 46.53,9.158C46.936,9.33 47.402,9.417 47.928,9.417C48.29,9.417 48.637,9.367 48.969,9.268C49.301,9.169 49.601,9.022 49.869,8.828C50.136,8.634 50.365,8.394 50.555,8.11C50.741,7.83 50.873,7.513 50.951,7.159L49.551,7.159C49.421,7.52 49.228,7.792 48.969,7.974Z" style="fill:rgb(9,1,2);fill-rule:nonzero;"/>
                <rect x="56.14" y="2.546" width="1.475" height="6.689" style="fill:rgb(9,1,2);fill-rule:nonzero;"/>
                <path d="M44.166,6.415C44.041,6.19 43.877,6.005 43.674,5.858C43.471,5.712 43.241,5.595 42.982,5.509C42.723,5.423 42.46,5.349 42.192,5.289C41.916,5.229 41.649,5.172 41.39,5.121C41.131,5.069 40.901,5.006 40.698,4.933C40.495,4.86 40.331,4.767 40.206,4.655C40.081,4.543 40.019,4.396 40.019,4.215C40.019,4.068 40.062,3.95 40.148,3.859C40.234,3.768 40.34,3.699 40.465,3.652C40.59,3.605 40.724,3.572 40.866,3.555C41.008,3.538 41.131,3.529 41.235,3.529C41.563,3.529 41.854,3.589 42.108,3.71C42.363,3.831 42.524,4.068 42.594,4.422L44.133,4.422C44.09,4.051 43.985,3.734 43.816,3.471C43.648,3.208 43.437,2.994 43.182,2.83C42.928,2.666 42.643,2.548 42.328,2.474C42.013,2.401 41.683,2.364 41.338,2.364C41.036,2.364 40.719,2.395 40.387,2.455C40.055,2.515 39.753,2.621 39.482,2.772C39.21,2.923 38.985,3.121 38.809,3.367C38.632,3.613 38.543,3.917 38.543,4.279C38.543,4.616 38.604,4.899 38.725,5.127C38.845,5.356 39.007,5.543 39.21,5.69C39.412,5.837 39.641,5.953 39.896,6.039C40.15,6.126 40.415,6.199 40.691,6.259C40.959,6.32 41.222,6.376 41.481,6.427C41.74,6.479 41.97,6.542 42.173,6.615C42.376,6.689 42.542,6.786 42.671,6.906C42.801,7.027 42.87,7.182 42.878,7.372C42.887,7.562 42.842,7.715 42.742,7.831C42.643,7.948 42.516,8.037 42.361,8.097C42.205,8.157 42.039,8.198 41.863,8.22C41.686,8.241 41.528,8.252 41.39,8.252C40.993,8.252 40.653,8.166 40.368,7.993C40.099,7.83 39.938,7.552 39.885,7.159L38.404,7.159C38.42,7.525 38.499,7.845 38.641,8.116C38.791,8.405 38.998,8.647 39.262,8.841C39.525,9.035 39.835,9.179 40.193,9.274C40.551,9.369 40.942,9.417 41.364,9.417C41.709,9.417 42.059,9.378 42.412,9.3C42.766,9.223 43.087,9.098 43.376,8.925C43.665,8.752 43.901,8.528 44.082,8.252C44.263,7.976 44.353,7.64 44.353,7.243C44.353,6.915 44.291,6.639 44.166,6.415Z" style="fill:rgb(9,1,2);fill-rule:nonzero;"/>
                <path d="M59.666,5.302C59.675,5.052 59.724,4.819 59.815,4.603C59.906,4.387 60.026,4.2 60.177,4.04C60.328,3.881 60.509,3.755 60.721,3.665C60.932,3.574 61.167,3.529 61.426,3.529C61.676,3.529 61.903,3.579 62.105,3.678C62.308,3.777 62.481,3.906 62.623,4.066C62.765,4.226 62.877,4.413 62.959,4.629C63.041,4.845 63.091,5.069 63.108,5.302L59.666,5.302ZM64.486,4.816C64.361,4.346 64.161,3.93 63.885,3.568C63.608,3.205 63.261,2.914 62.843,2.694C62.424,2.474 61.952,2.364 61.426,2.364C60.926,2.364 60.477,2.459 60.08,2.649C59.683,2.839 59.345,3.095 59.065,3.419C58.784,3.742 58.568,4.118 58.418,4.545C58.267,4.972 58.191,5.423 58.191,5.897C58.191,6.415 58.262,6.889 58.405,7.32C58.547,7.752 58.758,8.123 59.039,8.433C59.319,8.744 59.662,8.985 60.067,9.158C60.473,9.33 60.939,9.417 61.465,9.417C61.827,9.417 62.174,9.367 62.507,9.268C62.839,9.169 63.138,9.022 63.406,8.828C63.673,8.634 63.902,8.394 64.092,8.11C64.278,7.83 64.41,7.513 64.488,7.159L63.088,7.159C62.958,7.52 62.765,7.792 62.507,7.974C62.243,8.159 61.896,8.252 61.465,8.252C61.154,8.252 60.887,8.198 60.663,8.09C60.438,7.982 60.253,7.838 60.106,7.657C59.959,7.476 59.849,7.264 59.776,7.023C59.703,6.781 59.666,6.531 59.666,6.272L64.583,6.272C64.644,5.772 64.611,5.287 64.486,4.816Z" style="fill:rgb(9,1,2);fill-rule:nonzero;"/>
                <path d="M17.082,3.471C16.905,3.199 16.683,2.981 16.416,2.817C16.148,2.653 15.844,2.537 15.503,2.468C15.163,2.399 14.811,2.364 14.449,2.364C14.086,2.364 13.733,2.397 13.388,2.461C13.043,2.526 12.732,2.638 12.456,2.798C12.18,2.958 11.958,3.175 11.79,3.451C11.621,3.727 11.537,4.081 11.537,4.512C11.537,4.806 11.598,5.054 11.718,5.256C11.839,5.459 11.999,5.627 12.197,5.761C12.396,5.895 12.622,6.003 12.877,6.085C13.131,6.167 13.392,6.238 13.659,6.298C14.315,6.436 14.826,6.574 15.193,6.712C15.559,6.85 15.743,7.057 15.743,7.333C15.743,7.497 15.704,7.633 15.626,7.741C15.549,7.849 15.452,7.935 15.335,8C15.219,8.064 15.089,8.112 14.947,8.142C14.805,8.172 14.669,8.187 14.539,8.187C14.358,8.187 14.184,8.166 14.015,8.123C13.847,8.08 13.698,8.013 13.569,7.922C13.439,7.831 13.334,7.715 13.252,7.573C13.184,7.454 13.144,7.316 13.133,7.159L11.388,7.159C11.416,7.564 11.514,7.905 11.686,8.181C11.872,8.478 12.109,8.718 12.398,8.899C12.687,9.08 13.017,9.21 13.388,9.287C13.759,9.365 14.138,9.404 14.526,9.404C14.906,9.404 15.279,9.367 15.646,9.294C16.012,9.221 16.338,9.093 16.623,8.912C16.907,8.731 17.138,8.491 17.315,8.194C17.492,7.896 17.58,7.527 17.58,7.087C17.58,6.777 17.52,6.516 17.399,6.305C17.278,6.093 17.119,5.916 16.92,5.774C16.722,5.632 16.495,5.517 16.241,5.431C15.986,5.345 15.725,5.272 15.458,5.211C15.199,5.151 14.945,5.095 14.695,5.043C14.444,4.991 14.222,4.933 14.028,4.868C13.834,4.804 13.677,4.719 13.556,4.616C13.435,4.512 13.375,4.379 13.375,4.215C13.375,4.077 13.409,3.967 13.478,3.885C13.547,3.803 13.631,3.74 13.731,3.697C13.83,3.654 13.94,3.626 14.061,3.613C14.181,3.6 14.294,3.594 14.397,3.594C14.725,3.594 15.009,3.656 15.251,3.781C15.477,3.898 15.608,4.115 15.646,4.432L17.392,4.432C17.352,4.048 17.249,3.727 17.082,3.471Z" style="fill:rgb(9,1,2);fill-rule:nonzero;"/>
                <path d="M55.441,2.552C54.791,2.552 53.833,2.502 52.961,3.359L52.916,3.359L52.916,2.562L51.532,2.562L51.532,6.516L51.53,9.251L51.532,9.251L51.532,9.252L53,9.252L53.003,5.421C53.003,4.217 54.082,3.873 55.44,3.873L55.441,2.552Z" style="fill:rgb(9,1,2);fill-rule:nonzero;"/>
                <path d="M5.818,8.502C4.384,8.502 3.218,7.335 3.218,5.902C3.218,4.468 4.384,3.301 5.818,3.301C7.252,3.301 8.418,4.468 8.418,5.902C8.418,7.335 7.252,8.502 5.818,8.502ZM6.567,1.872L6.567,0.806C6.567,0.392 6.232,0.057 5.818,0.057C5.404,0.057 5.069,0.392 5.069,0.806L5.069,1.872C3.408,2.18 2.096,3.492 1.788,5.153L0.749,5.153C0.335,5.153 0,5.488 0,5.902C0,6.316 0.335,6.651 0.749,6.651L1.788,6.651C2.141,8.555 3.814,10 5.818,10C8.078,10 9.917,8.162 9.917,5.902C9.917,3.898 8.471,2.225 6.567,1.872Z" style="fill:rgb(9,1,2);fill-rule:nonzero;"/>
                <path d="M5.327,5.906C5.327,5.64 5.544,5.423 5.81,5.423C6.077,5.423 6.294,5.64 6.294,5.906C6.294,6.172 6.077,6.389 5.81,6.389C5.544,6.389 5.327,6.172 5.327,5.906ZM4.202,5.906C4.202,6.793 4.923,7.514 5.81,7.514C6.697,7.514 7.419,6.793 7.419,5.906C7.419,5.019 6.697,4.297 5.81,4.297C4.923,4.297 4.202,5.019 4.202,5.906Z" style="fill:rgb(9,1,2);fill-rule:nonzero;"/>
                <path d="M2.689,2.123C2.689,2.537 2.353,2.874 1.939,2.874C1.524,2.874 1.189,2.537 1.189,2.123C1.189,1.709 1.524,1.373 1.939,1.373C2.353,1.373 2.689,1.709 2.689,2.123Z" style="fill:rgb(9,1,2);fill-rule:nonzero;"/>
            </g>
            <path d="M70.678,6.415C70.553,6.19 70.389,6.005 70.186,5.858C69.984,5.712 69.753,5.595 69.494,5.509C69.235,5.423 68.972,5.349 68.705,5.289C68.429,5.229 68.161,5.172 67.902,5.121C67.644,5.069 67.413,5.006 67.21,4.933C67.007,4.86 66.843,4.767 66.718,4.655C66.593,4.543 66.531,4.396 66.531,4.215C66.531,4.068 66.574,3.95 66.66,3.859C66.746,3.768 66.852,3.699 66.977,3.652C67.102,3.605 67.236,3.572 67.378,3.555C67.521,3.538 67.644,3.529 67.747,3.529C68.075,3.529 68.366,3.589 68.621,3.71C68.875,3.831 69.037,4.068 69.106,4.422L70.646,4.422C70.602,4.051 70.497,3.734 70.329,3.471C70.16,3.208 69.949,2.994 69.695,2.83C69.44,2.666 69.155,2.548 68.841,2.474C68.526,2.401 68.196,2.364 67.851,2.364C67.549,2.364 67.232,2.395 66.9,2.455C66.567,2.515 66.266,2.621 65.994,2.772C65.722,2.923 65.498,3.121 65.321,3.367C65.144,3.613 65.056,3.917 65.056,4.279C65.056,4.616 65.116,4.899 65.237,5.127C65.358,5.356 65.519,5.543 65.722,5.69C65.925,5.837 66.153,5.953 66.408,6.039C66.662,6.126 66.927,6.199 67.204,6.259C67.471,6.32 67.734,6.376 67.993,6.427C68.252,6.479 68.483,6.542 68.685,6.615C68.888,6.689 69.054,6.786 69.183,6.906C69.313,7.027 69.382,7.182 69.391,7.372C69.399,7.562 69.354,7.715 69.255,7.831C69.155,7.948 69.028,8.037 68.873,8.097C68.718,8.157 68.551,8.198 68.375,8.22C68.198,8.241 68.04,8.252 67.902,8.252C67.506,8.252 67.165,8.166 66.88,7.993C66.612,7.83 66.451,7.552 66.397,7.159L64.917,7.159C64.933,7.525 65.011,7.845 65.153,8.116C65.304,8.405 65.511,8.647 65.774,8.841C66.037,9.035 66.347,9.179 66.705,9.274C67.063,9.369 67.454,9.417 67.877,9.417C68.221,9.417 68.571,9.378 68.925,9.3C69.278,9.223 69.6,9.098 69.889,8.925C70.178,8.752 70.413,8.528 70.594,8.252C70.775,7.976 70.866,7.64 70.866,7.243C70.866,6.915 70.803,6.639 70.678,6.415Z" style="fill:rgb(9,1,2);fill-rule:nonzero;"/>
        </g>
    </g>
</svg>
